<svg xmlns="http://www.w3.org/2000/svg" width="300" height="300" fill="none">
  <path fill="#EECC18" d="M0 0h300v300H0z"/>
  <path fill="#000" d="M144.89 256.728c-14.208 0-23.856-6.144-28.944-18.432l10.224-5.184c2.016 4.32 4.32 7.44 6.912 9.36 2.688 1.824 6.672 2.736 11.952 2.736 5.376 0 9.888-1.68 13.536-5.04 3.648-3.456 5.472-9.12 5.472-16.992V154.2h12.384v68.112c0 5.376-.672 10.128-2.016 14.256-1.344 4.128-3.072 7.44-5.184 9.936-2.016 2.496-4.464 4.56-7.344 6.192-2.784 1.536-5.568 2.592-8.352 3.168-2.784.576-5.664.864-8.64.864Zm91.182 0c-7.68 0-14.448-2.112-20.304-6.336-5.76-4.224-9.696-9.552-11.808-15.984l11.52-4.176c1.92 4.608 4.752 8.304 8.496 11.088 3.744 2.688 7.968 4.032 12.672 4.032 5.28 0 9.456-1.44 12.528-4.32 3.072-2.976 4.608-7.152 4.608-12.528 0-8.736-6.768-16.032-20.304-21.888-3.84-1.632-7.056-3.168-9.648-4.608-2.592-1.536-5.328-3.456-8.208-5.76-2.784-2.4-4.944-5.184-6.48-8.352-1.44-3.264-2.16-6.912-2.16-10.944 0-6.912 2.544-12.72 7.632-17.424 5.088-4.704 11.856-7.056 20.304-7.056 6.816 0 12.624 1.68 17.424 5.04 4.896 3.264 8.064 7.536 9.504 12.816l-11.376 3.744c-1.248-2.976-3.264-5.424-6.048-7.344-2.784-1.92-6.096-2.88-9.936-2.88-4.512 0-8.112 1.2-10.8 3.6-2.688 2.304-4.032 5.472-4.032 9.504 0 2.304.48 4.368 1.44 6.192 1.056 1.824 2.688 3.504 4.896 5.04 2.208 1.536 4.176 2.784 5.904 3.744 1.824.96 4.416 2.16 7.776 3.6 3.648 1.632 6.768 3.264 9.36 4.896 2.688 1.632 5.472 3.744 8.352 6.336 2.976 2.592 5.232 5.712 6.768 9.36 1.536 3.552 2.304 7.536 2.304 11.952 0 8.928-2.832 15.936-8.496 21.024-5.664 5.088-12.96 7.632-21.888 7.632Z"/>
</svg>